<svg width="72" height="53" viewBox="0 0 72 53" fill="none" xmlns="http://www.w3.org/2000/svg">
<path d="M17.7369 0C22.9478 0 26.8559 1.85701 29.4614 5.57102C32.0668 9.38541 33.3695 13.9526 33.3695 19.2727C33.3695 24.9943 32.1169 30.1136 29.6117 34.6307C27.0063 39.1477 23.7495 42.9621 19.8413 46.0739C15.833 49.1856 11.6743 51.4943 7.36534 53L0 41.4063C1.40292 40.804 3.20667 39.75 5.41127 38.2443C7.51565 36.7386 9.51983 35.1326 11.4238 33.4261C13.2276 31.7197 14.4301 30.1638 15.0313 28.7585C12.8267 28.5578 10.8225 27.9053 9.01878 26.8011C7.11481 25.697 5.56158 24.0909 4.35908 21.983C3.15657 19.9754 2.55531 17.5161 2.55531 14.6051C2.55531 9.68655 4.10855 6.02273 7.21503 3.61364C10.3215 1.20455 13.8288 0 17.7369 0ZM56.3674 0C61.5783 0 65.4864 1.85701 68.0919 5.57102C70.6973 9.38541 72 13.9526 72 19.2727C72 24.9943 70.7474 30.1136 68.2422 34.6307C65.6367 39.1477 62.38 42.9621 58.4718 46.0739C54.4635 49.1856 50.3048 51.4943 45.9958 53L38.6305 41.4063C40.1336 40.804 41.9374 39.75 44.0418 38.2443C46.1461 36.7386 48.1503 35.1326 50.0543 33.4261C51.858 31.7197 53.0605 30.1638 53.6618 28.7585C51.4572 28.5578 49.453 27.9053 47.6493 26.8011C45.7453 25.697 44.1921 24.0909 42.9896 21.983C41.7871 19.9754 41.1858 17.5161 41.1858 14.6051C41.1858 9.68655 42.739 6.02273 45.8455 3.61364C48.952 1.20455 52.4593 0 56.3674 0Z" fill="#CD7777"/>
</svg>
