<svg width="1920" height="519" viewBox="0 0 1920 519" fill="none" xmlns="http://www.w3.org/2000/svg">
<path d="M466 0.5C609.319 0.5 725.5 116.459 725.5 259.5C725.5 402.541 609.319 518.5 466 518.5C322.681 518.5 206.5 402.541 206.5 259.5C206.5 116.459 322.681 0.5 466 0.5Z" stroke="#F2D9D9" stroke-opacity="0.6"/>
<path d="M907.5 80.5C1007.46 80.5 1088.5 161.759 1088.5 262C1088.5 362.241 1007.46 443.5 907.5 443.5C807.538 443.5 726.5 362.241 726.5 262C726.5 161.759 807.538 80.5 907.5 80.5Z" stroke="#F2D9D9" stroke-opacity="0.6"/>
<circle cx="1269" cy="262" r="181.5" stroke="#F2D9D9" stroke-opacity="0.6"/>
<path d="M375 90.5C468.059 90.5 543.5 166.162 543.5 259.5C543.5 352.838 468.059 428.5 375 428.5C281.941 428.5 206.5 352.838 206.5 259.5C206.5 166.162 281.941 90.5 375 90.5Z" stroke="#F2D9D9" stroke-opacity="0.6"/>
<path d="M763 206.5C793.656 206.5 818.5 231.129 818.5 261.5C818.5 291.871 793.656 316.5 763 316.5C732.344 316.5 707.5 291.871 707.5 261.5C707.5 231.129 732.344 206.5 763 206.5Z" stroke="#F2D9D9" stroke-opacity="0.6"/>
<path d="M1664.5 203.5C1694.87 203.5 1719.5 228.564 1719.5 259.5C1719.5 290.436 1694.87 315.5 1664.5 315.5C1634.13 315.5 1609.5 290.436 1609.5 259.5C1609.5 228.564 1634.13 203.5 1664.5 203.5Z" stroke="#F2D9D9" stroke-opacity="0.6"/>
<path d="M953.5 126.5C1028.06 126.5 1088.5 187.164 1088.5 262C1088.5 336.836 1028.06 397.5 953.5 397.5C878.943 397.5 818.5 336.836 818.5 262C818.5 187.164 878.943 126.5 953.5 126.5Z" stroke="#F2D9D9" stroke-opacity="0.6"/>
<path d="M1585.5 124.5C1659.5 124.5 1719.5 184.938 1719.5 259.5C1719.5 334.062 1659.5 394.5 1585.5 394.5C1511.5 394.5 1451.5 334.062 1451.5 259.5C1451.5 184.938 1511.5 124.5 1585.5 124.5Z" stroke="#F2D9D9" stroke-opacity="0.6"/>
<rect y="259" width="1920" height="1" fill="#F2D9D9"/>
<rect x="0.25" y="259.25" width="1919.5" height="0.5" stroke="#F2D9D9" stroke-opacity="0.6" stroke-width="0.5"/>
<circle cx="438" cy="416" r="4" fill="#BC4242"/>
<circle cx="902" cy="387" r="4" fill="#BC4242"/>
<circle cx="1327" cy="434" r="4" fill="#BC4242"/>
<circle cx="1545" cy="130" r="4" fill="#BC4242"/>
<circle cx="991" cy="101" r="4" fill="#BC4242"/>
<circle cx="645" cy="72" r="4" fill="#BC4242"/>
</svg>
