<svg width="72" height="53" viewBox="0 0 72 53" fill="none" xmlns="http://www.w3.org/2000/svg">
<path d="M54.2631 53C49.0522 53 45.1441 51.143 42.5386 47.429C39.9332 43.6146 38.6305 39.0474 38.6305 33.7273C38.6305 28.0057 39.8831 22.8864 42.3883 18.3693C44.9937 13.8523 48.2505 10.0379 52.1587 6.92614C56.167 3.81439 60.3257 1.50568 64.6347 0L72 11.5937C70.5971 12.196 68.7933 13.25 66.5887 14.7557C64.4844 16.2614 62.4802 17.8674 60.5762 19.5739C58.7724 21.2803 57.5699 22.8362 56.9687 24.2415C59.1733 24.4422 61.1775 25.0947 62.9812 26.1989C64.8852 27.303 66.4384 28.9091 67.6409 31.017C68.8434 33.0246 69.4447 35.4839 69.4447 38.3949C69.4447 43.3134 67.8914 46.9773 64.785 49.3864C61.6785 51.7955 58.1712 53 54.2631 53ZM15.6326 53C10.4217 53 6.51357 51.143 3.90814 47.429C1.30271 43.6146 0 39.0474 0 33.7273C0 28.0057 1.25261 22.8864 3.75783 18.3693C6.36326 13.8523 9.62004 10.0379 13.5282 6.92614C17.5365 3.81439 21.6952 1.50568 26.0042 0L33.3695 11.5937C31.8664 12.196 30.0626 13.25 27.9582 14.7557C25.8539 16.2614 23.8497 17.8674 21.9457 19.5739C20.142 21.2803 18.9395 22.8362 18.3382 24.2415C20.5428 24.4422 22.547 25.0947 24.3507 26.1989C26.2547 27.303 27.8079 28.9091 29.0104 31.017C30.2129 33.0246 30.8142 35.4839 30.8142 38.3949C30.8142 43.3134 29.261 46.9773 26.1545 49.3864C23.048 51.7955 19.5407 53 15.6326 53Z" fill="#CD7777"/>
</svg>
