<svg width="1320" height="752" viewBox="0 0 1320 752" fill="none" xmlns="http://www.w3.org/2000/svg">
<path d="M285.812 3.12742C282.469 5.37382 280.3 8.56387 279.064 12.8208C278.131 16.2502 278.404 19.1444 283.367 51.5623C289.378 90.8215 289.35 90.6525 296.29 95.103C299.234 96.9797 299.566 97.448 298.619 98.543C296.415 100.962 295.221 106.592 295.891 110.983C296.604 115.627 299.814 120.919 302.461 121.975C303.82 122.454 303.764 122.637 301.665 123.482C283.356 130.479 274.813 136.82 265.484 150.372C255.034 165.569 251.51 181.762 254.451 200.406C257.5 219.208 267.866 235.397 283.541 245.925C286.402 247.812 288.896 250.105 289.025 250.95C289.269 252.555 288.861 286.846 288.054 340.387C287.809 357.277 287.561 374.692 287.537 379.016C287.551 390.857 286.982 428.024 286.737 429.788C286.615 430.672 285.798 431.492 284.876 431.637C283.367 431.869 283.182 431.207 281.952 423.186C281.086 417.532 280.234 414.208 279.462 413.634C278.69 413.064 275.121 413.275 268.841 414.25C257.451 416.021 257.661 415.729 259.432 427.295L260.675 435.401L253.138 436.573L245.601 437.746L246.764 445.344L247.927 452.942L255.464 451.77L263.001 450.597L264.112 457.858C265.739 468.495 265.547 468.35 276.937 466.579L286.398 465.107L285.881 500.367C285.689 519.845 285.211 548.094 285.033 563.164L284.523 590.642L296.852 629.172C311.084 673.98 310.477 672.259 311.734 672.061C315.014 671.639 315.035 672.329 315.44 700.184L315.74 727.362L319.271 737.531C321.238 743.101 323.365 749.168 323.986 750.971C325.01 753.752 325.191 751.562 325.223 736.087C325.226 704.19 325.268 526.912 325.191 504.018C325.142 491.923 325.17 473.079 325.135 462.192C325.181 451.295 325.139 442.052 325.086 441.714C325.02 441.295 336.106 439.225 349.675 437.112C363.24 435.003 374.417 433.524 374.469 433.859C374.522 434.197 381.36 457.594 389.729 485.938C398.097 514.285 404.936 537.679 404.963 537.848C405.002 538.101 409.968 537.503 415.913 536.577L426.8 534.883L425.574 526.862L424.344 518.845L428.113 518.257L431.881 517.672L437.438 553.974L442.995 590.276L445.51 589.885L448.021 589.494L449.442 598.779L450.864 608.067L445.838 608.849L440.816 609.63L443.98 629.19L447.242 648.819L449.208 648.773C451.087 648.742 451.101 648.826 453.623 665.287L456.155 681.836L461.562 686.353L466.983 690.955L469.578 707.923C471.956 723.457 472.396 725.204 474.464 728.081C476.888 731.591 477.824 731.535 479.804 727.683C481.072 725.324 480.995 723.693 478.739 707.275L476.277 689.508L480.056 683.388L483.751 677.283L481.243 660.903C478.84 645.2 478.819 644.513 480.345 643.844C481.956 643.161 481.868 642.569 478.83 623.855L475.634 604.645L470.821 605.134L465.924 605.638L464.517 596.434L463.095 587.149L465.606 586.758L468.118 586.367L463.944 559.097L459.784 531.915L470.419 530.26L481.138 528.591L479.993 519.433L478.861 510.363L484.222 509.528L489.664 508.68L488.501 501.082L487.338 493.487L481.896 494.332L476.451 495.18L475.183 486.906C474.37 481.586 473.531 478.346 472.759 477.776C471.212 476.632 454.13 479.29 452.995 480.85C452.359 481.727 451.433 477.375 448.929 460.998L445.698 439.894L455.45 438.633C462.009 437.788 465.484 436.985 466.221 436.182C466.955 435.376 466.927 432.961 466.036 427.133L464.821 419.197L470.262 418.352L475.707 417.504L474.544 409.905L473.381 402.31L467.936 403.155L462.495 404.004L461.15 395.223C460.154 388.723 459.432 386.241 458.492 385.695C457.552 385.153 453.993 385.445 447.49 386.631L437.896 388.381L434.008 365.217L430.201 342.041L416.06 311.828L402.002 281.603L398.865 281.832L395.813 282.047L405.7 346.629L415.599 411.299L411.83 411.884L408.062 412.472L404.003 385.962C400.734 364.604 399.197 356.805 396.214 346.291C394.171 339.091 386.672 312.511 379.464 287.269C372.342 262.016 366.366 240.904 366.3 240.482C366.223 239.978 367.229 238.697 368.521 237.63C374.459 232.732 382.247 219.764 385.736 208.937C389.048 198.656 389.334 192.128 387.242 178.452C385.502 167.657 384.839 164.995 382.471 160.178C370.854 136.918 349.308 122.208 324.486 120.796L321.981 120.666L323.808 118.049C326.064 114.845 327.406 109.624 326.878 106.162C326.372 102.87 323.602 98.2015 320.784 96.0467L318.646 94.3918L321.328 91.2088C326.756 84.6598 326.784 85.9519 320.633 45.7668C315.335 11.1518 315.042 9.81379 312.876 6.86671C311.671 5.15551 309.08 2.7894 307.117 1.7155C303.809 -0.27739 303.03 -0.330197 295.874 0.525407C290.586 1.2613 287.359 2.02183 285.812 3.12742ZM302.576 3.97597C303.935 4.45483 305.611 5.31747 306.313 5.98646C309.485 8.77862 295.944 13.3066 288.284 11.9898C283.974 11.2785 283.793 10.0955 287.624 6.56042C289.947 4.38444 298.968 2.81052 302.576 3.97597ZM289.612 13.944C293.96 14.9087 299.545 13.87 304.609 11.0919C306.991 9.85955 309.174 9.00047 309.464 9.21525C309.74 9.34552 312.481 26.1195 315.583 46.3794L321.231 83.2724L319.659 86.4554C317.689 90.3919 314.165 92.582 308.472 93.4693C303.195 94.2897 299.035 92.8602 295.986 89.1878C293.981 86.7336 293.639 85.0576 288.312 50.2772C285.249 30.2673 282.955 13.5989 283.241 13.2081C283.534 12.9017 284.359 12.687 285.082 12.9193C285.888 13.1412 287.928 13.6024 289.612 13.944ZM313.861 97.2966C321.611 99.2015 324.989 107.838 320.839 114.88C317.214 120.891 309.471 121.834 303.676 117.032C298.245 112.345 298.626 103.641 304.532 99.0923C307.609 96.8002 309.942 96.3494 313.861 97.2966ZM326.459 125.848C368.909 129.271 395.778 175.396 378.311 214.761C375.646 220.877 366.838 233.919 365.249 234.165C364.913 234.218 364.068 232.619 363.506 230.633C362.364 227.095 362.423 226.912 366.576 220.993C371.235 214.476 375.021 204.465 376.254 195.719C376.858 191.821 376.572 187.716 375.433 180.287C374.102 171.593 373.393 169.195 370.477 163.601C362.587 147.886 347.216 136.535 329.878 133.612C323.805 132.57 321.321 132.612 312.698 133.954C301.308 135.725 298.158 136.992 289 143.256C275.431 152.629 266.047 169.734 265.418 186.339C265.118 193.906 268.003 207.719 271.226 214.218C274.317 220.394 280.356 227.926 285.679 232.454C289.224 235.447 289.454 235.845 289.412 239.482C289.486 241.63 289.241 243.397 288.906 243.45C288.068 243.58 279.109 236.587 275.669 233.147C271.911 229.324 264.768 218.507 262.55 212.976C259.854 206.567 257.521 189.642 258.23 182.533C259.142 173.921 262.963 163.037 267.58 155.664C280.447 134.992 302.328 123.898 326.459 125.848ZM324.391 136.975C326.145 138.344 323.497 139.535 315.792 140.732C307.92 141.957 307.49 141.936 307.232 140.249C306.96 138.475 307.295 138.422 315.384 137.51C319.935 136.975 324.018 136.774 324.391 136.975ZM304.599 142.647L305.859 145.302L316.33 143.672L326.798 142.045L327.451 139.608L328.205 137.246L332.721 138.182C346.283 141.087 360.596 152.259 366.789 164.692C370.463 171.9 373.131 185.399 372.503 193.621C371.94 201.142 368.863 210.18 364.732 216.785C362.929 219.574 361.372 221.715 361.19 221.658C360.984 221.43 353.653 197.075 353.447 195.723C353.408 195.469 348.634 196.212 342.871 197.194L332.358 199.089L329.054 214.472C327.168 222.887 325.439 230.074 325.156 230.461C324.957 230.838 322.093 224.458 318.803 216.412L312.866 201.691L301.392 203.476L289.919 205.261L289.8 210.638C289.748 213.669 289.727 219.12 289.681 222.757C289.734 226.465 289.433 229.538 289.098 229.588C287.757 229.799 282.144 223.929 278.515 218.704C269.012 204.796 266.815 189.322 271.988 172.699C275.91 160.245 285.029 149.235 296.653 142.844C302.513 139.686 303.198 139.665 304.599 142.647ZM312.97 221.986C317.647 232.926 324.315 247.362 326.648 251.407C327.713 253.316 327.783 253.217 328.817 249.341C329.417 247.087 331.883 236.33 334.398 225.306L338.984 205.405L343.004 204.782C345.18 204.441 347.048 204.325 347.101 204.663C347.139 204.916 350.831 217.824 355.354 233.369C359.793 248.929 367.683 276.396 372.831 294.353C377.983 312.307 384.538 334.971 387.402 344.724L392.666 362.315L405.253 444.541L417.841 526.771L414.156 527.345C409.801 528.021 411.065 530.676 403.228 503.546C395.128 475.85 382.509 432.609 372.429 398.135C347.24 311.99 343.161 297.673 343.887 296.261C349.011 286.043 346.308 275.66 337.636 271.65C323.972 265.305 309.956 279.586 316.397 293.107C317.417 295.283 318.241 297.314 318.115 297.592C317.986 297.871 317.874 306.099 317.825 315.873C317.864 325.637 317.724 345.45 317.717 359.974C317.542 385.153 317.361 439.978 317.19 474.146C317.169 482.966 317.032 507.275 316.977 528.2C316.351 636.686 316.33 653.368 316.564 654.889C316.708 655.819 316.571 656.618 316.152 656.682C315.817 656.734 310.63 641.897 304.665 623.637L293.845 590.487L294.072 561.15C294.25 544.96 294.536 509.307 294.805 481.952C296.076 354.696 296.758 285.79 297.145 245.193C297.25 231.866 297.404 218.877 297.533 216.349L297.767 211.733L302.915 211.19L308.147 210.634L312.97 221.986ZM333.553 278.596C337.073 280.294 338.24 281.755 338.813 284.952C339.382 288.667 338.083 291.374 335.037 293.318C330.081 296.251 323.808 293.335 322.942 287.681C322.016 281.082 328.083 275.903 333.553 278.596ZM332.955 297.099C333.877 296.955 334.723 297.43 334.824 298.103C334.981 299.117 343.587 328.461 361.714 390.293C364.662 400.036 367.617 410.381 368.392 413.197L369.792 418.426L347.349 421.915L324.989 425.394L325.128 422.954C325.258 420.426 325.265 297.258 325.121 296.328C325.083 296.075 326.477 296.205 328.17 296.635C329.85 296.976 332.033 297.24 332.955 297.099ZM407.779 304.215C410.52 310.356 415.829 322.063 419.573 330.295L426.489 345.21L444.923 463.956L463.284 582.797L454.912 584.1L446.537 585.403L424.089 438.76C411.746 358.136 401.932 292.332 402.222 292.547C402.526 292.846 405.026 297.987 407.779 304.215ZM275.805 416.623C275.882 417.13 273.255 417.884 269.571 418.458C265.634 419.07 263.403 419.07 263.661 418.514C263.836 417.968 266.63 417.187 269.896 416.68C273.161 416.173 275.728 416.116 275.805 416.623ZM455.432 388.677C455.845 389.135 453.637 389.821 449.282 390.501C444.927 391.177 442.614 391.191 442.873 390.631C443.044 390.089 445.842 389.307 449.023 388.811C452.205 388.318 455.104 388.212 455.432 388.677ZM277.223 420.292C277.548 422.405 277.464 422.415 270.43 423.51C263.392 424.605 263.308 424.62 262.987 422.507C262.662 420.398 262.746 420.384 269.784 419.289C276.818 418.197 276.902 418.183 277.223 420.292ZM456.435 392.413C456.756 394.522 456.672 394.536 450.225 395.54C446.624 396.099 443.404 396.342 443.114 396.128C442.824 395.913 442.597 394.997 442.705 394.029C442.904 392.529 443.714 392.23 449.495 391.332C456.026 390.314 456.11 390.3 456.435 392.413ZM277.908 425.891C277.904 427.535 277.426 427.781 271.23 428.746C265.034 429.711 264.503 429.619 264.007 428.053C263.497 426.405 263.818 426.267 270.688 425.2C277.555 424.13 277.901 424.162 277.908 425.891ZM457.119 398.011C457.151 399.906 456.257 400.219 445.821 401.497C444.72 401.582 444.043 401.082 443.875 399.983C443.641 398.465 444.203 398.205 450.399 397.24C456.763 396.251 457.112 396.282 457.119 398.011ZM278.903 431.267C279.228 433.38 279.144 433.39 272.11 434.485C265.072 435.58 264.988 435.594 264.667 433.482C264.342 431.373 264.426 431.359 271.464 430.264C278.498 429.172 278.582 429.158 278.903 431.267ZM458.115 403.388C458.436 405.497 458.352 405.511 451.737 406.539C445.122 407.571 445.038 407.581 444.713 405.472C444.392 403.363 444.476 403.349 451.091 402.321C457.706 401.289 457.79 401.275 458.115 403.388ZM279.678 436.334C280.003 438.443 279.919 438.457 272.885 439.552C266.518 440.541 265.739 440.489 265.533 439.14C265.159 436.689 265.788 436.334 272.822 435.239C279.273 434.235 279.357 434.221 279.678 436.334ZM458.89 408.455C459.211 410.564 459.128 410.578 452.513 411.606C445.897 412.634 445.814 412.648 445.489 410.539C445.168 408.426 445.251 408.412 451.866 407.384C458.481 406.356 458.565 406.342 458.89 408.455ZM261.709 442.154C262.096 444.686 262.013 444.7 257.49 445.404C252.967 446.108 252.883 446.119 252.495 443.587C252.107 441.056 252.191 441.041 256.714 440.337C261.237 439.637 261.321 439.622 261.709 442.154ZM286.625 438.02C286.793 441.362 284.823 441.929 284.331 438.721C284.058 436.95 284.348 436.038 285.27 435.897C286.192 435.753 286.545 436.39 286.625 438.02ZM371.644 424.359C372.063 425.419 372.482 426.475 372.534 426.813C372.597 427.236 362 429.144 348.938 431.176L325.153 434.876L325.184 432.278L325.132 429.693L347.995 426.137L370.854 422.581L371.644 424.359ZM416.632 418.053C417.006 420.5 416.853 420.613 413.252 421.172C409.651 421.732 409.469 421.672 409.095 419.225C408.722 416.775 408.875 416.666 412.476 416.106C416.077 415.546 416.259 415.602 416.632 418.053ZM468.554 409.976C468.904 412.254 468.691 412.546 466.427 412.898C464.168 413.25 463.878 413.035 463.528 410.757C463.179 408.476 463.392 408.183 465.652 407.831C467.915 407.483 468.205 407.694 468.554 409.976ZM280.583 442.242C280.918 444.439 280.918 444.439 274.013 445.253C267.528 446.003 266.997 445.911 266.476 444.179C265.952 442.446 266.106 442.334 273.06 441.253C280.178 440.147 280.262 440.133 280.583 442.242ZM459.795 414.363C460.116 416.472 460.032 416.486 453.417 417.514C446.802 418.546 446.718 418.556 446.393 416.447C446.072 414.338 446.156 414.324 452.771 413.296C459.386 412.264 459.47 412.25 459.795 414.363ZM281.358 447.309C281.683 449.418 281.599 449.432 274.565 450.527C267.531 451.622 267.447 451.633 267.122 449.524C266.801 447.411 266.881 447.4 273.919 446.305C280.953 445.21 281.037 445.196 281.358 447.309ZM460.57 419.43C460.891 421.539 460.808 421.553 454.192 422.581C447.577 423.609 447.494 423.623 447.169 421.514C446.847 419.401 446.931 419.387 453.546 418.359C460.161 417.331 460.245 417.317 460.57 419.43ZM286.674 450.112C286.552 450.995 286.308 450.513 286.101 449.164C285.881 447.728 285.958 447.112 286.287 447.58C286.545 448.143 286.727 449.326 286.674 450.112ZM423.74 464.484L429.555 502.476L425.787 503.06L422.018 503.648L416.203 465.657L410.388 427.665L414.156 427.081L417.925 426.493L423.74 464.484ZM282.2 452.794C282.431 454.316 281.872 454.576 275.341 455.59C268.806 456.608 268.195 456.53 267.964 455.009C267.73 453.492 268.289 453.231 274.824 452.214C281.355 451.2 281.966 451.277 282.2 452.794ZM461.408 424.915C461.642 426.436 461.08 426.693 454.968 427.648C448.856 428.598 448.241 428.521 448.01 427C447.776 425.479 448.339 425.222 454.451 424.267C460.563 423.317 461.178 423.394 461.408 424.915ZM283.038 458.284C283.363 460.393 283.279 460.407 276.245 461.502C269.211 462.597 269.127 462.608 268.802 460.499C268.481 458.386 268.565 458.375 275.599 457.28C282.633 456.185 282.717 456.171 283.038 458.284ZM462.25 430.405C462.571 432.514 462.488 432.528 455.872 433.556C449.257 434.584 449.174 434.598 448.849 432.489C448.527 430.376 448.611 430.362 455.226 429.334C461.841 428.306 461.925 428.292 462.25 430.405ZM282.783 462.213C282.86 462.72 280.401 463.449 277.132 463.956C273.867 464.463 270.957 464.484 270.639 464.1C270.227 463.646 272.354 462.97 276.291 462.358C279.975 461.784 282.707 461.706 282.783 462.213ZM462.411 434.267C462.226 434.728 459.442 435.594 456.26 436.087C453.078 436.584 450.165 436.605 449.851 436.221C449.439 435.767 451.646 435.077 456.002 434.401C460.357 433.721 462.669 433.707 462.411 434.267ZM469.099 480.765C470.028 481.227 468.31 481.751 463.535 482.494C459.096 483.184 456.7 483.212 456.959 482.653C457.462 481.452 467.258 479.927 469.099 480.765ZM470.521 484.434C470.842 486.543 470.758 486.557 464.143 487.586C457.528 488.614 457.444 488.628 457.119 486.519C456.798 484.406 456.882 484.396 463.497 483.364C470.112 482.336 470.196 482.322 470.521 484.434ZM471.425 490.342C471.747 492.455 471.663 492.466 465.048 493.497C458.433 494.525 458.349 494.54 458.024 492.427C457.703 490.318 457.786 490.304 464.402 489.276C471.017 488.244 471.1 488.233 471.425 490.342ZM472.201 495.409C472.522 497.518 472.438 497.532 465.823 498.561C459.208 499.589 459.124 499.603 458.799 497.494C458.478 495.381 458.562 495.37 465.177 494.339C471.792 493.311 471.876 493.297 472.201 495.409ZM472.986 500.557C473.287 502.5 473.046 502.624 466.598 503.627C459.983 504.655 459.9 504.669 459.575 502.557C459.239 500.363 459.323 500.349 465.966 499.49C472.438 498.656 472.704 498.701 472.986 500.557ZM428.811 506.567C429.698 506.775 430.383 507.877 430.603 509.314C430.963 511.676 430.809 511.789 427.208 512.349C423.607 512.909 423.426 512.849 423.08 510.571C422.87 509.219 422.916 507.828 423.213 507.525C423.764 506.659 426.95 506.166 428.811 506.567ZM482.305 500.923C482.955 503.5 482.815 503.698 480.468 504.06C478.208 504.412 477.834 504.212 477.513 502.103C477.059 499.148 477.328 498.673 479.783 498.462C481.219 498.328 481.812 498.839 482.305 500.923ZM473.881 506.384C474.202 508.493 474.118 508.507 467.503 509.535C460.888 510.564 460.804 510.578 460.479 508.469C460.158 506.356 460.242 506.345 466.857 505.314C473.472 504.286 473.556 504.272 473.881 506.384ZM474.656 511.447C474.977 513.56 474.893 513.571 468.278 514.602C461.663 515.63 461.579 515.644 461.255 513.532C460.933 511.423 461.017 511.409 467.632 510.38C474.247 509.352 474.331 509.338 474.656 511.447ZM475.494 516.937C475.728 518.454 475.166 518.715 469.054 519.665C462.942 520.62 462.33 520.539 462.096 519.021C461.862 517.5 462.425 517.239 468.537 516.289C474.649 515.338 475.264 515.416 475.494 516.937ZM476.336 522.422C476.657 524.535 476.573 524.546 469.958 525.577C463.343 526.605 463.259 526.619 462.938 524.507C462.613 522.398 462.697 522.384 469.312 521.355C475.927 520.327 476.011 520.313 476.336 522.422ZM476.081 526.352C476.158 526.859 473.695 527.588 470.346 528.109C466.997 528.63 464.433 528.683 464.356 528.176C464.279 527.669 466.738 526.943 470.088 526.422C473.437 525.901 476.001 525.845 476.081 526.352ZM460.123 596.86L461.265 606.014L458.335 606.472L455.404 606.926L453.759 597.849L452.125 588.853L455.558 588.321L458.991 587.786L460.123 596.86ZM450.564 628.51C452.037 638.136 452.547 643.154 451.912 642.908C451.356 642.65 450.131 636.876 448.8 628.179C447.427 619.232 446.949 613.859 447.452 613.782C447.955 613.704 449.128 619.141 450.564 628.51ZM454.531 627.549C455.991 638.211 456.253 642.147 455.551 642.601C454.751 642.985 453.997 639.732 452.24 628.25C450.288 615.503 450.131 613.366 451.22 613.197C452.31 613.028 452.774 614.944 454.531 627.549ZM458.087 627.253C459.508 636.542 460.015 642.08 459.512 642.157C459.009 642.235 457.835 636.802 456.414 627.514C454.992 618.229 454.486 612.687 454.989 612.609C455.492 612.532 456.665 617.968 458.087 627.253ZM462.275 626.602C463.581 635.13 464.202 641.429 463.783 641.492C462.526 641.689 462.159 639.844 460.224 625.538C457.717 606.912 459.393 607.775 462.275 626.602ZM466.476 626.035C468.233 637.517 468.484 640.848 467.692 640.714C466.805 640.506 465.875 636.675 464.08 626.063C461.985 613.511 461.855 611.542 462.945 611.373C464.031 611.204 464.524 613.289 466.476 626.035ZM470.65 625.299C472.574 637.88 472.742 640.098 471.656 640.27C470.566 640.439 470.063 638.27 468.135 625.69C466.211 613.113 466.043 610.891 467.133 610.722C468.219 610.553 468.722 612.722 470.65 625.299ZM473.923 624.271C475.253 632.968 475.808 638.844 475.358 639.26C474.824 639.689 473.811 634.746 472.337 625.123C470.901 615.754 470.398 610.211 470.901 610.134C471.401 610.057 472.55 615.324 473.923 624.271ZM476.168 661.347L478.578 677.656L476.21 681.219C474.181 684.216 473.182 684.976 470.587 685.381C467.908 685.797 466.909 685.434 463.738 682.642L460.057 679.325L457.668 663.706L455.261 648.006L464.475 646.573L473.685 645.14L476.168 661.347Z" fill="#BC4242"/>
<path d="M326.528 251.425C324.195 247.379 317.524 232.947 312.851 222.003L308.024 210.655L302.796 211.208L297.647 211.75L297.41 216.37C297.284 218.894 297.13 231.883 297.026 245.21C296.638 285.807 295.953 354.717 294.686 481.969C294.417 509.324 294.13 544.981 293.949 561.171L293.725 590.508L304.545 623.655C310.511 641.914 315.697 656.752 316.033 656.703C316.452 656.636 316.588 655.836 316.445 654.907C316.211 653.389 316.228 636.703 316.857 528.218C316.909 507.293 317.049 482.983 317.07 474.167C317.241 439.999 317.423 385.17 317.597 359.991C317.604 345.471 317.741 325.655 317.706 315.894C317.751 306.12 317.866 297.891 317.992 297.613C318.121 297.332 317.297 295.3 316.277 293.124C309.837 279.607 323.853 265.326 337.513 271.671C346.188 275.681 348.892 286.064 343.768 296.282C343.041 297.691 347.117 312.011 372.31 398.152C382.386 432.63 395.009 475.871 403.108 503.564C410.946 530.697 409.681 528.038 414.037 527.362L417.721 526.788L405.134 444.562L392.546 362.333L387.283 344.742C384.415 334.989 377.86 312.328 372.712 294.37C367.563 276.417 359.67 248.95 355.231 233.39C350.708 217.845 347.02 204.933 346.978 204.68C346.929 204.342 345.06 204.462 342.881 204.8L338.861 205.426L334.278 225.327C331.764 236.348 329.294 247.105 328.697 249.358C327.663 253.238 327.59 253.333 326.528 251.425Z" fill="#BC4242"/>
<path d="M383.938 409.68L318.423 419.095L320.93 436.827L386.446 427.412L383.938 409.68Z" fill="#BC4242"/>
<path d="M311.265 48.9531C314.136 67.6954 316.616 82.7794 316.829 82.4871C317.325 81.8075 307.217 15.7887 306.543 15.2888C306.253 15.074 308.398 30.2108 311.265 48.9531Z" fill="#BC4242"/>
<path d="M292.062 52.3721C295.383 74.0685 297.5 85.6667 298.003 85.5892C298.506 85.5118 297.056 73.808 293.735 52.1116C290.413 30.4152 288.297 18.817 287.794 18.8944C287.291 18.9719 288.74 30.6757 292.062 52.3721Z" fill="#BC4242"/>
<path d="M291.12 19.8488C290.341 20.9191 300.543 85.8851 301.556 86.3323C302.195 86.5788 300.715 75.2271 297.302 52.9426C294.445 34.2849 292.035 19.0988 291.868 19.127C291.7 19.1516 291.323 19.472 291.12 19.8488Z" fill="#BC4242"/>
<path d="M307.329 51.2944C310.689 73.2443 312.834 85.008 313.336 84.9305C313.923 84.839 312.366 72.9838 309.006 51.0339C305.646 29.0839 303.585 17.3027 302.998 17.3942C302.495 17.4717 303.969 29.3445 307.329 51.2944Z" fill="#BC4242"/>
<path d="M299.86 52.8866C303.181 74.583 305.301 86.1847 305.804 86.1037C306.307 86.0262 304.858 74.3224 301.536 52.626C298.215 30.9296 296.095 19.3314 295.595 19.4124C295.092 19.4899 296.538 31.1902 299.86 52.8866Z" fill="#BC4242"/>
<path d="M304.538 52.5937C307.419 71.4205 308.68 79.0892 307.314 69.6212C306.046 60.2237 303.696 44.858 302.082 35.4288C300.563 26.07 301.656 33.7669 304.538 52.5937Z" fill="#BC4242"/>
<path d="M25.6326 430.049L29.01 458.365C29.01 464.657 26.8096 467.805 22.4089 467.805C18.1129 467.805 15.9649 464.71 15.9649 458.52C15.9649 455.632 16.5797 451.351 17.8056 445.675C19.035 440.003 19.6462 434.999 19.6462 430.669C19.6462 426.334 18.4203 424.169 15.9649 424.169C14.0195 424.169 12.5876 425.718 11.6655 428.809C10.7469 431.802 10.2859 435.464 10.2859 439.799C10.2859 444.231 11.0019 452.64 12.4338 465.019C13.9671 477.501 14.7355 486.783 14.7355 492.871C14.7355 499.061 12.4339 502.155 7.83055 502.155C3.22374 502.155 0.922088 499.163 0.922088 493.18C0.922088 487.3 1.73938 479.1 3.37743 468.576C5.01549 458.157 5.83273 450.319 5.83273 445.059L5.98643 236.478C5.98643 230.084 3.99211 224.926 0 221.007L3.07004 217.757C7.3695 221.884 12.4863 223.947 18.4203 223.947H148.27C149.804 223.947 152.514 223.894 156.405 223.792C160.292 223.69 164.895 223.739 170.218 223.947C175.537 224.151 180.961 224.359 186.487 224.567C192.114 224.669 197.691 225.183 203.217 226.112C208.843 227.042 214.215 228.176 219.332 229.517C224.449 230.753 229.206 232.612 233.606 235.087C238.007 237.563 241.845 240.348 245.118 243.443C252.18 250.252 255.708 258.914 255.708 269.438C255.708 279.959 253.305 289.138 248.496 296.98C243.686 304.715 236.931 308.944 228.235 309.669L228.542 312.761C234.581 312.247 240.207 313.69 245.425 317.095C250.643 320.394 254.891 324.831 258.163 330.401C265.019 342.161 268.449 353.097 268.449 363.206C268.449 373.315 266.965 381.825 263.996 388.737C261.132 395.645 257.091 401.37 251.873 405.912C246.655 410.451 240.871 414.37 234.528 417.669C228.182 420.972 221.124 423.447 213.345 425.098C198.509 428.397 183.777 430.049 169.142 430.049H25.6326ZM78.8921 349.742C82.8842 353.766 84.8785 358.974 84.8785 365.372C84.8785 371.766 82.8842 376.977 78.8921 380.998L81.9622 384.248C86.0556 380.121 91.1723 378.058 97.3124 378.058H157.631C158.347 378.058 159.883 378.111 162.237 378.213C164.588 378.213 166.226 378.213 167.148 378.213C168.171 378.111 169.656 377.956 171.598 377.748C173.644 377.544 175.129 377.181 176.051 376.667C177.074 376.047 178.146 375.273 179.275 374.347C181.423 372.797 182.495 369.808 182.495 365.372C182.495 360.935 180.707 357.636 177.123 355.467C173.543 353.302 169.45 352.221 164.846 352.221L97.3124 352.682C91.071 352.682 85.9543 350.671 81.9622 346.647L78.8921 349.742ZM109.132 299.455L145.047 301.004C157.323 301.004 165.154 298.786 168.528 294.349C170.166 292.184 170.986 289.709 170.986 286.924C170.986 284.033 169.858 281.765 167.609 280.114C163.823 277.431 158.86 276.089 152.72 276.089L97.3124 276.244C91.6822 276.244 86.824 274.287 82.7306 270.364L79.8142 273.459C83.8063 277.484 85.8006 282.385 85.8006 288.159C85.8006 293.937 83.8063 298.941 79.8142 303.17L82.7306 306.11C87.2326 301.673 96.0341 299.455 109.132 299.455ZM31.158 533.873C32.2861 538.101 33.1034 541.661 33.6133 544.552C34.1268 547.541 34.3817 550.946 34.3817 554.763C34.3817 558.682 32.6424 560.643 29.1637 560.643C25.685 560.643 23.9457 558.115 23.9457 553.062C23.9457 547.904 24.714 542.334 26.2473 536.348C27.8854 530.366 28.8563 526.704 29.1637 525.362C29.4711 526.912 30.1347 529.746 31.158 533.873Z" fill="#BC4242"/>
<path d="M403.057 562.157C405.551 553.481 406.176 524.458 406.176 511.032L423.318 515.68C422.798 517.747 422.382 524.046 424.876 532.721C427.991 543.566 423.318 559.059 418.641 559.059C413.968 559.059 415.526 548.214 415.526 543.566C415.526 538.918 418.641 523.426 413.968 518.778C409.291 514.131 409.291 549.763 412.407 566.805C415.526 583.846 410.849 588.494 406.176 588.494C401.499 588.494 399.942 573.002 403.057 562.157Z" fill="#BC4242"/>
<path d="M403.057 562.157C405.551 553.481 406.176 524.458 406.176 511.032L423.318 515.68C422.798 517.747 422.382 524.046 424.876 532.721C427.991 543.566 423.318 559.059 418.641 559.059C413.968 559.059 415.526 548.214 415.526 543.566C415.526 538.918 418.641 523.426 413.968 518.778C409.291 514.131 409.291 549.763 412.407 566.805C415.526 583.846 410.849 588.494 406.176 588.494C401.499 588.494 399.942 573.002 403.057 562.157Z" fill="#BC4242"/>
<path d="M403.057 562.157C405.551 553.481 406.176 524.458 406.176 511.032L423.318 515.68C422.798 517.747 422.382 524.046 424.876 532.721C427.991 543.566 423.318 559.059 418.641 559.059C413.968 559.059 415.526 548.214 415.526 543.566C415.526 538.918 418.641 523.426 413.968 518.778C409.291 514.131 409.291 549.763 412.407 566.805C415.526 583.846 410.849 588.494 406.176 588.494C401.499 588.494 399.942 573.002 403.057 562.157Z" fill="#BC4242"/>
<path d="M283.842 628C285.623 621.296 286.066 598.871 286.066 588.494L298.312 592.086C297.941 593.681 297.645 598.55 299.426 605.254C301.651 613.634 298.312 625.606 294.973 625.606C291.634 625.606 292.744 617.226 292.744 613.634C292.744 610.043 294.973 598.071 291.634 594.48C288.291 590.888 288.291 618.423 290.52 631.591C292.744 644.76 289.405 648.351 286.066 648.351C282.727 648.351 281.613 636.38 283.842 628Z" fill="#BC4242"/>
<path d="M283.842 628C285.623 621.296 286.066 598.871 286.066 588.494L298.312 592.086C297.941 593.681 297.645 598.55 299.426 605.254C301.651 613.634 298.312 625.606 294.973 625.606C291.634 625.606 292.744 617.226 292.744 613.634C292.744 610.043 294.973 598.071 291.634 594.48C288.291 590.888 288.291 618.423 290.52 631.591C292.744 644.76 289.405 648.351 286.066 648.351C282.727 648.351 281.613 636.38 283.842 628Z" fill="#BC4242"/>
<path d="M283.842 628C285.623 621.296 286.066 598.871 286.066 588.494L298.312 592.086C297.941 593.681 297.645 598.55 299.426 605.254C301.651 613.634 298.312 625.606 294.973 625.606C291.634 625.606 292.744 617.226 292.744 613.634C292.744 610.043 294.973 598.071 291.634 594.48C288.291 590.888 288.291 618.423 290.52 631.591C292.744 644.76 289.405 648.351 286.066 648.351C282.727 648.351 281.613 636.38 283.842 628Z" fill="#BC4242"/>
<mask id="mask0_1_3630" style="mask-type:luminance" maskUnits="userSpaceOnUse" x="471" y="211" width="849" height="318">
<path d="M1320 211.747H471.285V528.637H1320V211.747Z" fill="white"/>
</mask>
<g mask="url(#mask0_1_3630)">
<path d="M559.418 464.745L562.642 442.774C562.642 427.613 546.579 420.028 514.447 420.028C508.922 420.028 505.087 421.317 502.935 423.898C500.787 426.475 499.715 430.862 499.715 437.049C499.715 443.239 500.633 451.802 502.478 462.735C504.318 473.773 505.24 482.181 505.24 487.956C505.24 493.836 502.939 496.776 498.332 496.776C493.728 496.776 491.427 493.681 491.427 487.491C491.427 481.406 492.143 472.174 493.575 459.795C495.007 447.418 495.723 439.01 495.723 434.574C495.723 424.053 493.83 418.792 490.044 418.792C487.588 418.792 486.359 421.733 486.359 427.613L490.044 453.298C490.044 459.383 487.843 462.425 483.443 462.425C479.147 462.425 476.999 459.33 476.999 453.143L480.526 424.673L480.376 398.987V232.957C480.376 226.563 478.378 221.405 474.39 217.486L477.46 214.236C481.654 218.363 486.771 220.426 492.806 220.426H619.586C680.774 220.426 718.739 240.489 733.471 280.618C737.565 291.962 739.611 304.085 739.611 316.979C739.611 329.767 738.794 340.806 737.156 350.091C735.623 359.27 733.625 367.368 731.17 374.382C728.714 381.294 725.236 387.431 720.734 392.797C716.333 398.159 711.883 402.698 707.381 406.413C702.98 410.025 697.354 413.117 690.498 415.698C683.642 418.275 677.295 420.285 671.463 421.732C665.63 423.074 658.316 424.106 649.515 424.827C635.701 425.961 619.485 426.528 600.862 426.528H578.607C570.012 426.528 565.712 432.718 565.712 445.094L568.167 464.9C568.167 468.822 566.837 470.78 564.179 470.78C561.007 470.78 559.418 468.77 559.418 464.745ZM647.367 358.291C650.538 354.164 652.993 348.851 654.733 342.355C656.472 335.753 657.342 327.859 657.342 318.68C657.342 309.395 655.809 301.659 652.739 295.469C649.669 289.279 645.575 284.741 640.462 281.854C635.345 278.966 629.666 276.85 623.425 275.509C617.183 274.065 610.635 273.291 603.779 273.189C596.922 272.984 590.527 272.829 584.59 272.724C570.06 272.519 560.749 270.354 556.656 266.227L553.589 269.322C557.476 273.139 559.418 278.294 559.418 284.794V320.384C559.418 344.109 559.523 361.851 559.726 373.611H594.568C612.067 373.611 624.445 372.062 631.713 368.967C639.079 365.872 644.297 362.316 647.367 358.291ZM569.243 519.521C569.243 524.268 567.504 526.641 564.025 526.641C560.648 526.641 558.961 524.68 558.961 520.761C558.961 516.944 559.163 513.592 559.572 510.701C560.085 507.814 560.903 504.099 562.027 499.561C563.155 495.124 563.819 492.339 564.025 491.205C564.333 492.547 564.895 494.765 565.712 497.86C566.533 501.057 567.144 503.532 567.553 505.286C568.681 510.134 569.243 514.881 569.243 519.521Z" fill="#BC4242"/>
<path d="M791.397 406.585L792.49 415.113C792.49 416.673 791.876 417.451 790.65 417.451C789.466 417.451 788.875 416.627 788.875 414.976L790.035 406.722C790.035 406.402 790.056 405.416 790.101 403.765C790.147 402.068 790.147 400.832 790.101 400.054C790.056 399.226 789.92 397.874 789.693 395.994C789.466 394.068 788.669 392.42 787.304 391.043L788.669 389.667C790.943 391.959 795.581 393.107 802.584 393.107L831.168 391.593C838.216 391.593 842.83 392.741 845.013 395.033L846.448 393.589C844.447 391.48 843.445 388.065 843.445 383.34V379.491C843.445 373.759 844.447 369.886 846.448 367.868L845.013 366.492C842.739 368.784 838.08 369.932 831.032 369.932L802.448 368.351C795.445 368.351 790.852 369.495 788.669 371.787L787.237 370.481C789.012 368.738 789.899 366.446 789.899 363.604C789.899 360.717 789.012 358.4 787.237 356.657L788.669 355.284C790.943 357.622 796.266 358.791 804.631 358.791L838.534 357.21C846.948 357.21 852.292 358.379 854.565 360.717L855.927 359.411C853.93 357.439 852.927 353.999 852.927 349.094V345.242C852.927 339.651 853.93 335.845 855.927 333.827L854.565 332.384C852.791 334.172 850.517 335.063 847.744 335.063H760.155C757.473 335.063 755.199 334.172 753.334 332.384L751.969 333.827C753.697 335.524 754.56 337.792 754.56 340.637V420.821L754.665 427.697L758.042 429.074C759.425 426.528 766.205 426.391 770.253 426.391H850.95C853.678 426.391 855.927 427.285 857.702 429.074L859.067 427.697C857.066 425.588 856.067 422.218 856.067 417.588V413.599C856.067 407.916 857.066 404.064 859.067 402.047L857.702 400.67C855.973 402.459 853.724 403.353 850.95 403.353L795.288 403.282C793.65 403.282 792.354 404.131 791.397 405.828V406.585Z" fill="#333333"/>
<path d="M890.651 421.782C896.701 424.489 905.841 426.162 918.072 426.803H933.387C933.887 426.849 935.431 426.803 938.13 426.32C953.268 424.768 953.268 424.768 965.073 421.99C969.439 420.384 973.214 418.366 976.4 415.937C979.627 413.507 982.243 410.367 984.244 406.515C986.245 402.621 987.244 398.24 987.244 393.381C987.244 381.509 980.605 373.46 967.326 369.245C961.004 367.227 951.909 365.597 940.041 364.361C936.629 364.041 933.583 363.721 930.897 363.397C919.438 362.161 913.706 360.189 913.706 357.485C913.706 354.457 917.527 352.946 925.169 352.946C929.078 352.946 932.581 353.654 935.675 355.076C938.766 356.453 940.313 358.101 940.313 360.027C940.313 360.488 940.243 360.921 940.107 361.333L943.107 362.161C943.474 360.875 944.064 360.006 944.882 359.548C945.748 359.087 947.135 358.812 949.045 358.721C951.001 358.629 955.342 358.4 962.073 358.034C968.848 357.622 974.056 357.347 977.695 357.21H978.582C981.083 357.21 983.287 357.872 985.197 359.203L986.085 357.622C984.174 355.605 982.676 353.425 981.583 351.087C978.9 344.531 974.237 339.697 967.598 336.577C964.416 335.063 961.186 333.827 957.913 332.862C954.682 331.855 951.046 331.144 946.998 330.732C942.996 330.274 939.493 329.975 936.492 329.838C933.538 329.655 929.217 329.563 923.531 329.563C917.845 329.563 911.799 330.158 905.387 331.352C901.702 331.993 898.29 332.841 895.153 333.894C892.062 334.95 889.083 336.327 886.216 338.021C883.397 339.718 880.987 341.665 878.986 343.866C876.984 346.066 875.392 348.703 874.211 351.777C873.073 354.848 872.507 358.242 872.507 361.953C872.507 365.668 873.233 368.991 874.69 371.924C876.188 374.815 878.144 377.199 880.554 379.076C882.964 380.91 885.852 382.516 889.219 383.892C892.628 385.265 896.131 386.322 899.725 387.054C903.316 387.741 907.137 388.385 911.185 388.98C915.233 389.575 918.984 390.033 922.438 390.357C925.941 390.677 929.42 391.11 932.878 391.663C936.377 392.167 939.356 392.786 941.812 393.519C944.267 394.251 945.496 395.744 945.496 397.99C945.496 398.952 945.088 399.776 944.267 400.466C942.405 401.976 939.266 402.733 934.854 402.733C928.306 402.733 923.783 401.772 921.278 399.846C918.778 397.92 917.527 396.202 917.527 394.688C917.527 394.093 917.597 393.61 917.733 393.244L914.663 392.212C914.255 393.498 913.57 394.388 912.617 394.895C911.663 395.353 910.182 395.628 908.181 395.719C906.18 395.811 902.837 395.994 898.154 396.269L895.946 396.378C892.139 396.564 888.671 396.733 885.535 396.888C881.804 397.071 878.734 397.163 876.324 397.163C873.96 397.163 871.756 396.476 869.709 395.1L868.686 396.543C870.824 398.057 872.346 400.328 873.254 403.353C874.211 406.332 875.553 409.039 877.281 411.469C880.145 415.595 884.602 419.032 890.651 421.782Z" fill="#333333"/>
<path d="M1034.73 423.556C1038.84 426.528 1040.59 428.289 1040.59 428.289C1040.38 427.116 1040.59 426.528 1042.03 426.528V420.958V340.496C1042.03 337.7 1042.91 335.408 1044.68 333.619L1043.32 332.176C1041.5 334.01 1039.23 334.926 1036.5 334.926H1011.8C1009.17 334.926 1006.89 334.01 1004.98 332.176L1003.62 333.619C1005.39 335.362 1006.28 337.654 1006.28 340.496V421.303C1006.28 422.665 1006.55 424.965 1005.66 426.528C1006.24 426.528 1007.41 426.88 1007.41 428.289C1008.07 428.169 1010.06 427.264 1012.76 424.588C1015.58 421.243 1019.04 419.567 1023.13 419.567C1027.22 419.567 1030.22 420.211 1032.14 421.493C1033.13 422.137 1032.14 421.493 1034.73 423.556Z" fill="#333333"/>
<path d="M1143.87 400.395C1143.87 402.23 1144.74 403.835 1146.46 405.208L1145.65 406.31C1144.24 405.208 1143.19 404.659 1142.51 404.659C1141.83 404.659 1141.12 404.751 1140.39 404.934C1136.39 405.944 1130.55 406.448 1122.86 406.448C1115.18 406.448 1108.95 404.039 1104.17 399.226C1099.44 394.367 1097.07 388.202 1097.07 380.727C1097.07 373.255 1098.67 367.248 1101.85 362.71C1103.49 360.463 1105.69 358.699 1108.47 357.414C1111.24 356.133 1114.83 355.488 1119.25 355.488C1123.7 355.488 1127.27 356.041 1129.95 357.14C1132.69 358.192 1134.82 359.777 1136.37 361.886C1137.91 363.949 1138.69 365.484 1138.69 366.491C1138.69 367.502 1138.5 368.396 1138.14 369.174L1140.39 370.273C1141.39 368.259 1143.33 367.157 1146.19 366.974L1174.98 366.012C1178.03 366.012 1180.48 366.699 1182.34 368.072L1183.37 366.699C1181.28 365.231 1179.82 363.122 1179 360.372C1177.28 354.502 1173.29 349.277 1167.06 344.693C1155.56 336.211 1139.05 331.971 1117.54 331.971C1104.22 331.971 1092.94 334.239 1083.7 338.778C1067.7 346.573 1059.69 360.256 1059.69 379.832C1059.69 405.553 1072.68 421.349 1098.65 427.215L1100.62 427.697C1110.45 428.936 1119.81 429.553 1128.73 429.553H1131.59C1151.06 428.683 1166.06 424.694 1176.62 417.588C1177.93 416.718 1179.1 416.282 1180.09 416.282C1181.14 416.282 1182.07 416.486 1182.89 416.902L1183.98 414.905C1182.8 414.264 1182.01 413.532 1181.6 412.705C1181.23 411.835 1181.05 410.687 1181.05 409.268V380.452C1181.05 377.611 1181.91 375.319 1183.64 373.576L1182.34 372.199C1180.62 373.942 1178.34 374.815 1175.52 374.815H1133.64C1130.82 374.815 1128.55 373.942 1126.82 372.199L1125.39 373.576C1127.21 375.41 1128.11 377.702 1128.11 380.452V390.631C1128.11 393.335 1127.21 395.603 1125.39 397.437L1126.82 398.881C1128.59 397.096 1130.87 396.202 1133.64 396.202H1140.26C1142.03 396.202 1143.74 395.374 1145.37 393.726L1146.33 394.621C1144.69 396.268 1143.87 398.011 1143.87 399.846V400.395Z" fill="#333333"/>
<path d="M1227.44 423.007C1228.98 423.007 1234.43 425.06 1234.43 426.528C1234.93 425.577 1236.11 424.141 1236.92 425.982V420.958V381.692C1236.92 378.663 1235.74 375.914 1233.37 373.438L1237.53 373.301C1238.58 376.924 1239.53 379.308 1240.4 380.452L1273.07 422.197C1274.08 423.479 1273.07 422.197 1274.78 426.528L1281.58 424.768L1288.12 423.944C1293.05 423.32 1298.05 423.32 1302.99 423.944L1304.37 424.12C1307.8 424.549 1311.16 425.359 1314.41 426.528L1314.55 342.559C1314.55 337.197 1316.16 335.088 1319.39 331.419L1318.03 329.975C1314.34 333.278 1309.86 334.926 1304.59 334.926H1290.61C1285.33 334.926 1280.85 333.278 1277.17 329.975L1275.73 331.419C1280.46 333.665 1282.83 338.549 1282.83 346.066C1282.83 348.865 1282.49 353.059 1281.8 358.654C1281.12 364.199 1280.78 368.372 1280.78 371.167C1280.78 377.174 1281.9 381.829 1284.12 385.128H1280.03C1279.21 382.836 1277.46 379.832 1274.78 376.121C1272.09 372.407 1266.07 365.139 1256.7 354.319C1249.51 346.02 1245.92 340.841 1245.92 338.778C1245.92 336.257 1246.51 333.574 1247.69 330.732L1245.45 329.634C1244.22 331.739 1242.58 333.162 1240.53 333.894C1238.53 334.584 1236.08 334.926 1233.17 334.926H1212.77C1207.49 334.926 1203.01 333.278 1199.33 329.975L1197.9 331.419C1201.17 335.042 1202.81 339.559 1202.81 344.968L1202.88 425.982C1203.45 425.486 1204.78 424.873 1205.54 426.391C1207.49 424.327 1211.06 423.296 1216.25 423.296C1220.11 423.296 1223.95 423.007 1227.44 423.007Z" fill="#333333"/>
</g>
</svg>
