<svg width="24" height="24" viewBox="0 0 24 24" fill="none" xmlns="http://www.w3.org/2000/svg">
<rect width="24" height="24" rx="12" fill="#BC4242"/>
<path d="M20 12C20 7.58172 16.4183 4 12 4C7.58172 4 4 7.58172 4 12C4 16.4183 7.58172 20 12 20C16.4183 20 20 16.4183 20 12Z" stroke="white" stroke-width="2"/>
<path d="M14.3469 11.1281H9.54724V9.22885H14.3469C14.6273 9.22885 14.8222 9.27772 14.9201 9.36305C15.0179 9.44839 15.0785 9.60667 15.0785 9.83788V10.5199C15.0785 10.7635 15.0179 10.9217 14.9201 11.0071C14.8222 11.0924 14.6273 11.1289 14.3469 11.1289V11.1281ZM14.6762 7.43823H7.51172V15.5606H9.54724V12.918H13.2985L15.0785 15.5606H17.3579L15.3954 12.9056C16.1189 12.7984 16.4438 12.5767 16.7117 12.2113C16.9797 11.8459 17.1141 11.2616 17.1141 10.4819V9.8729C17.1141 9.41046 17.0651 9.04504 16.9797 8.76497C16.8942 8.48488 16.7483 8.24128 16.5409 8.02246C16.3219 7.81532 16.078 7.66944 15.7852 7.5717C15.4925 7.48637 15.1267 7.4375 14.6762 7.4375V7.43823Z" fill="white"/>
</svg>
