<svg width="24" height="24" viewBox="0 0 24 24" fill="none" xmlns="http://www.w3.org/2000/svg">
<rect width="24" height="24" rx="12" fill="#BC4242"/>
<g clip-path="url(#clip0_10_2530)">
<path d="M19.9242 11.7867C19.9242 11.7074 19.8597 11.6417 19.7804 11.6379C16.9322 11.5301 15.1988 11.1668 13.9862 9.95414C12.7711 8.73901 12.409 7.00436 12.3011 4.15006C12.2987 4.0707 12.233 4.00623 12.1524 4.00623H11.8201C11.7407 4.00623 11.675 4.0707 11.6713 4.15006C11.5634 7.00312 11.2013 8.73901 9.98621 9.95414C8.77233 11.168 7.04015 11.5301 4.19205 11.6379C4.11269 11.6404 4.04822 11.7061 4.04822 11.7867V12.119C4.04822 12.1984 4.11269 12.2641 4.19205 12.2678C7.04015 12.3757 8.77357 12.739 9.98621 13.9516C11.1989 15.1643 11.5609 16.894 11.67 19.7371C11.6725 19.8165 11.7382 19.8809 11.8188 19.8809H12.1524C12.2317 19.8809 12.2974 19.8165 12.3011 19.7371C12.4103 16.894 12.7723 15.1643 13.985 13.9516C15.1988 12.7378 16.931 12.3757 19.7791 12.2678C19.8585 12.2653 19.923 12.1996 19.923 12.119V11.7867H19.9242Z" fill="white"/>
</g>
<defs>
<clipPath id="clip0_10_2530">
<rect width="16" height="16" fill="white" transform="translate(4 4)"/>
</clipPath>
</defs>
</svg>
