<svg width="24" height="24" viewBox="0 0 24 24" fill="none" xmlns="http://www.w3.org/2000/svg">
<rect width="24" height="24" rx="12" fill="#BC4242"/>
<path fill-rule="evenodd" clip-rule="evenodd" d="M10.8931 3.50915C10.8476 3.52038 10.6242 3.56078 10.3966 3.59899C8.36747 3.93981 6.56643 5.29233 5.65273 7.16158C4.47441 9.57217 4.94145 12.6246 6.65079 13.6841C7.22331 14.039 7.34083 13.9773 7.52323 13.2259C7.68356 12.5655 7.67407 12.4811 7.39148 12.0567C6.98646 11.4483 6.89239 11.0719 6.89758 10.0809C6.90144 9.3397 6.91959 9.18058 7.05288 8.72058C7.53343 7.06243 8.67881 5.86359 10.236 5.38894C10.8203 5.21089 12.0278 5.16799 12.6641 5.30269C14.1783 5.62331 15.2283 6.65388 15.5573 8.14231C15.6827 8.70952 15.6708 9.92619 15.5316 10.7774C15.1772 12.9443 14.2648 14.3397 12.9974 14.6531C12.1682 14.8581 11.3003 14.3637 11.0774 13.5595C10.9516 13.1054 10.9993 12.8023 11.4525 11.1807C11.8387 9.79855 11.8489 9.74559 11.8537 9.09682C11.858 8.51648 11.8432 8.40077 11.7378 8.19412C11.1767 7.09409 9.72002 7.30629 9.09999 8.57835C8.85437 9.08235 8.77459 9.48442 8.779 10.1966C8.78231 10.7294 8.8105 10.9581 8.92019 11.3424L9.05729 11.8225L8.4051 14.7788C7.74419 17.7748 7.63699 18.411 7.6392 19.3256C7.64108 20.1174 7.85895 20.5 8.30811 20.5C8.5699 20.5 8.74496 20.3196 9.05972 19.7252C9.46512 18.9596 9.66187 18.3703 10.0386 16.7928C10.2395 15.9518 10.4151 15.2516 10.429 15.2371C10.4429 15.2225 10.4959 15.2742 10.5467 15.3518C10.8495 15.8147 11.565 16.2639 12.2065 16.3939C12.6682 16.4875 13.567 16.4314 14.0837 16.2768C16.1893 15.6466 17.6516 13.4319 17.9546 10.414C18.158 8.38867 17.6797 6.77781 16.4802 5.44839C15.7133 4.59847 14.7384 3.99497 13.6242 3.68037C13.1335 3.54186 12.9564 3.52264 12.0242 3.50672C11.4476 3.49688 10.9387 3.49798 10.8931 3.50915Z" fill="white"/>
</svg>
