<svg width="24" height="24" viewBox="0 0 24 24" fill="none" xmlns="http://www.w3.org/2000/svg">
<rect width="24" height="24" rx="12" fill="#BC4242"/>
<path fill-rule="evenodd" clip-rule="evenodd" d="M9.09002 6.01731C6.59483 6.08819 5.18492 6.2066 4.69149 6.38674C3.95095 6.65711 3.47304 7.18444 3.29959 7.9226C3.09382 8.79824 3 9.91676 3 11.4948C3 13.3744 3.15967 14.8526 3.43068 15.4818C3.69746 16.1012 4.35229 16.573 5.13859 16.7121C6.2631 16.9111 9.51243 17.0278 12.9977 16.9943C16.6235 16.9595 18.6745 16.833 19.2951 16.6059C19.9138 16.3794 20.4159 15.9067 20.6064 15.3713C20.9951 14.2783 21.1231 11.1077 20.8668 8.91999C20.8129 8.46033 20.6934 7.86311 20.6064 7.61828C20.4159 7.08292 19.9138 6.61017 19.2951 6.38369C18.8911 6.23586 17.7761 6.12565 15.9049 6.04867C14.806 6.00343 10.3072 5.98274 9.09002 6.01731ZM12.5919 10.3288C13.8638 10.9566 14.9044 11.4812 14.9044 11.4948C14.9044 11.5084 13.8638 12.0331 12.5919 12.6608C11.32 13.2885 10.2411 13.8234 10.1944 13.8494L10.1094 13.8968V11.4948V9.09285L10.1944 9.14018C10.2411 9.16622 11.32 9.7011 12.5919 10.3288Z" fill="white"/>
</svg>
