<svg width="65" height="65" viewBox="0 0 65 65" fill="none" xmlns="http://www.w3.org/2000/svg">
<rect width="65" height="65" fill="#BC4242"/>
<path d="M27.2787 17.38L30.3588 17.6L33.4387 18.7L35.4188 20.02V20.46H35.8587L37.8387 23.1L38.7188 25.3L39.1588 27.5V29.7L38.7188 31.9L37.8387 34.1L36.2987 36.08L34.9788 37.4H34.5387V37.84L31.2387 39.38L29.2587 39.82H26.6187L23.3187 38.94L21.1188 37.62L20.2387 36.96L20.0187 38.06L18.4787 39.82H17.1587L16.7188 39.38V38.28L18.6988 36.3H19.5787L18.0387 34.1L16.9387 31.24L16.7188 27.72L17.1587 25.08L18.4787 22.44L20.0187 20.46L22.8787 18.48L25.5188 17.6L27.2787 17.38ZM27.0588 19.36L24.4187 20.02L21.9987 21.56L20.4588 23.32L19.3587 25.52L18.9188 27.06V30.14L19.5787 32.34L20.8987 34.32L21.7787 35.42L23.7587 36.74L26.1788 37.62H29.9187L32.5588 36.52L34.5387 34.98L36.0788 33L36.9587 30.8L37.1787 28.16L36.7388 25.74L35.6388 23.54L33.6588 21.34L31.4587 20.02L30.3588 19.58L29.0387 19.36H27.0588Z" fill="white"/>
<path d="M33.2213 40.92L34.3213 41.14L35.4213 42.02V42.46H35.8613L36.9613 43.78L37.4013 44V44.44H37.8413L38.9413 45.54V45.98H39.3813V46.42H39.8213L40.9213 47.52V47.96H41.3613L42.4613 49.28L42.6813 46.86L43.3413 46.2L44.4413 46.42L44.8813 47.08V52.14L44.2213 52.8H38.5013L38.0613 52.14L38.2813 51.04L38.7213 50.82L40.7013 50.6L32.7812 42.68V41.36L33.2213 40.92Z" fill="white"/>
<path d="M42.0181 33H43.3381L44.4381 34.32L44.8781 34.54V34.98H45.3181L46.4181 36.3L47.5181 37.4L48.8381 38.5L49.9381 39.82L50.3781 40.04V40.48H50.8181L51.4781 41.36L51.6981 38.5L53.2381 38.28L53.6781 38.94V44.22L53.0181 44.88H47.5181L47.0781 44.44L47.2981 42.9L49.4981 42.46L41.5781 34.54V33.44L42.0181 33Z" fill="white"/>
<path d="M20.2369 41.14H21.3369L29.4769 49.28L29.6969 47.08L30.3569 46.42L31.6769 46.64L31.8969 47.08V52.36L31.2369 53.02H25.7369L25.0769 51.92L25.5169 51.04L27.9369 50.82L19.7969 42.68V41.58L20.2369 41.14Z" fill="white"/>
<path d="M20.4569 27.5L21.5569 27.72L22.4369 31.02L23.5369 32.78L25.2969 34.1L28.8169 34.98L29.0369 36.3L28.5969 36.74H26.1769L23.7569 35.86L21.7769 34.32L20.4569 32.34L19.7969 30.14V27.94L20.4569 27.5Z" fill="white"/>
<path d="M36.3006 36.3H37.4006L39.3806 38.28L39.1606 39.82H37.6206L35.8606 38.06L35.6406 37.18L36.3006 36.3Z" fill="white"/>
<path d="M40.0428 27.5H42.9028L43.5628 27.94V29.26L42.6828 29.7H40.2628L39.6028 29.48L39.3828 27.94L40.0428 27.5Z" fill="white"/>
<path d="M12.9803 27.5H15.8403L16.5003 27.94V29.26L15.6203 29.7H13.2003L12.5403 29.48L12.3203 28.16L12.9803 27.5Z" fill="white"/>
<path d="M17.1587 17.16H18.2587L19.7987 18.7L20.2387 19.36L20.0187 20.46L19.5787 20.9L18.4787 20.68L16.9387 19.14L16.7188 17.6L17.1587 17.16Z" fill="white"/>
<path d="M37.8406 17.16L39.1606 17.38L39.3806 17.6V18.7L37.1806 20.9L36.0806 20.68L35.6406 19.58L37.1806 17.82L37.8406 17.16Z" fill="white"/>
<path d="M27.5025 12.98H28.6025L29.0425 13.42V16.72L28.6025 17.16H27.2825L27.0625 16.94V13.2L27.5025 12.98Z" fill="white"/>
<path d="M27.2825 40.04H28.6025L29.0425 40.48V43.56L28.3825 44.22L27.0625 44V40.26L27.2825 40.04Z" fill="white"/>
</svg>
