<svg width="65" height="65" viewBox="0 0 65 65" fill="none" xmlns="http://www.w3.org/2000/svg">
<rect width="65" height="65" fill="#BC4242"/>
<g clip-path="url(#clip0_2001_5916)">
<path d="M15.048 33H17.688L17.864 34.408L15.928 34.496L15.048 35.64L14.432 36.52L13.552 37.752H14.344L15.224 38.28H15.84L16.896 37.752H18.128L19.008 38.192L19.096 38.28H19.712L20.768 37.752H22L22.88 38.192L22.968 38.28H23.584L24.64 37.752H25.872L26.752 38.192L26.84 38.28H27.456L28.512 37.752H29.744L30.8 38.28H31.328L32.384 37.752H33.616L34.672 38.28H35.288L35.992 37.84L36.256 37.752H37.488L38.544 38.28H39.16L39.864 37.84L40.128 37.752H41.36L42.152 38.104L42.416 38.28H43.032L43.736 37.84L44 37.752H45.32L46.024 38.104L46.288 38.28H46.904L47.608 37.84L47.872 37.752H49.192L49.896 38.104L50.16 38.28H50.776L51.656 37.752L52.272 37.664L51.48 36.52L50.16 34.584L50.072 34.496L48.136 34.408L48.312 33H50.952L51.304 33.352L52.448 35.024L53.416 36.432L53.856 36.96L54.12 37.4L54.824 38.368L55 38.808V39.6L54.648 39.952H53.68L52.8 39.512L52.712 39.424H52.008L51.304 39.864L51.04 39.952H49.808L48.752 39.424H48.136L47.432 39.864L47.168 39.952H45.936L44.88 39.424H44.264L43.56 39.864L43.296 39.952H42.064L41.272 39.6L41.008 39.424H40.392L39.512 39.952H38.104L37.136 39.424H36.52L35.904 39.864L35.64 39.952H34.232L33.264 39.424H32.648L32.032 39.864L31.768 39.952H30.448L29.568 39.512L29.48 39.424H28.776L28.16 39.864L27.896 39.952H26.576L25.872 39.688V39.512L25.608 39.424H24.992L24.2 39.864L24.024 39.952H22.704L21.824 39.512L21.736 39.424H21.12L20.328 39.864L20.064 39.952H18.832L17.952 39.512L17.864 39.424H17.248L16.456 39.864L16.28 39.952H14.96L14.08 39.512L13.992 39.424H13.376L12.584 39.864L12.408 39.952H11.352L11 39.6V38.544L11.352 37.84L12.056 36.872H12.232L12.408 36.52L13.552 34.936L14.784 33.264L15.048 33Z" fill="white"/>
<path d="M32.6456 17.864H33.3496L33.7896 18.304L34.6696 19.8L35.7256 21.736L36.4296 22.968L36.7816 23.848L37.9256 26.224L38.5416 27.808L38.8936 29.392V31.416L38.5416 32.736L37.8376 33.968L37.0456 34.848L36.3416 35.552L35.3736 36.08L34.4056 36.432H31.6776L30.4456 35.992L29.4776 35.376L28.3336 34.232L27.6296 33.088L27.2776 32.296L27.1016 31.504V29.48L27.4536 27.896L27.9816 26.488L29.2136 23.848L29.5656 23.056L30.6216 21.032L31.8536 18.92L32.4696 17.952L32.6456 17.864ZM32.9096 20.152L32.3816 21.208L31.3256 23.144L30.1816 25.432L29.5656 26.664L29.1256 27.72L28.6856 29.656V31.24L28.9496 32.12L29.3016 33L30.2696 33.968L31.2376 34.584L32.3816 34.936H33.7896L34.9336 34.496L35.8136 33.88L36.6056 33.088L36.8696 32.648L37.3096 31.24V29.48L36.8696 27.72L35.9016 25.52L35.1976 24.112L34.1416 22.088L33.2616 20.592L33.0856 20.152H32.9096Z" fill="white"/>
<path d="M11.264 46.728H54.736L55 47.08V47.784L54.736 48.136H11.264L11 47.784V47.08L11.264 46.728Z" fill="white"/>
<path d="M43.2987 26.048H44.0027L44.4427 26.488L45.8507 29.04L46.5547 30.448L46.9948 31.504L47.1708 32.208V33.704L46.8187 34.672L46.2028 35.552L45.4987 36.08L44.7067 36.432H42.5947L41.5387 35.904L40.6587 35.024L40.3067 34.144L40.2188 33.792V32.208L40.5707 30.8L41.0107 29.92L41.7148 28.512L42.7708 26.664L43.1228 26.136L43.2987 26.048ZM43.6507 28.424L43.2108 29.128L42.5068 30.536L41.8907 31.856L41.7148 32.472V33.44L42.0668 34.144L42.7708 34.76L43.2108 34.936H44.1788L44.8828 34.496L45.4107 33.88L45.5868 33.44V32.472L45.1467 31.24L44.1788 29.128L43.7387 28.424H43.6507Z" fill="white"/>
<path d="M21.9961 26.048H22.7001L23.1401 26.488L24.5481 29.04L25.4281 30.8L25.7801 32.12V33.704L25.4281 34.848L24.9001 35.552L24.1961 36.08L23.4041 36.432H21.2921L20.2361 35.904L19.7081 35.464L19.1801 34.672L18.8281 33.792V32.296L19.0921 31.24L19.8841 29.48L21.0281 27.456L21.8201 26.136L21.9961 26.048ZM22.2601 28.424L21.8201 29.128L21.5561 29.744L20.5881 31.856L20.4121 32.472V33.528L20.9401 34.408L21.8201 34.936H22.8761L23.7561 34.408L24.2841 33.528V32.384L23.7561 31.064L22.9641 29.392L22.3481 28.424H22.2601Z" fill="white"/>
<path d="M30.5337 28.864H31.3257L31.6777 29.216L31.7657 29.392L31.8537 30.536L32.1177 31.152L32.5577 31.504L32.9978 31.944V32.736L32.7337 33H31.9418L31.1497 32.648L30.6217 32.032L30.2697 31.24L30.0938 30.184L30.1817 29.216L30.5337 28.864Z" fill="white"/>
<path d="M44.7056 41.184H46.9056L47.2576 41.536L47.3456 42.152L47.0816 42.592L46.9056 42.68H44.7056L44.3536 42.416L44.2656 41.712L44.3536 41.448L44.7056 41.184Z" fill="white"/>
<path d="M19.0962 41.184H21.2962L21.6483 41.448L21.7362 42.152L21.4722 42.592L21.2962 42.68H19.0962L18.7442 42.328L18.6562 41.712L19.0962 41.184Z" fill="white"/>
<path d="M31.9478 41.184H34.0598L34.4118 41.448L34.4998 42.152L34.2358 42.592L34.0598 42.68H31.9478L31.5958 42.416L31.5078 41.712L31.7718 41.272L31.9478 41.184Z" fill="white"/>
<path d="M40.477 41.184H42.677L43.029 41.624V42.24L42.677 42.68H40.477L40.125 42.328V41.536L40.477 41.184Z" fill="white"/>
<path d="M23.3207 41.184H25.5208L25.8728 41.536V42.328L25.5208 42.68H23.3207L22.9688 42.24V41.624L23.3207 41.184Z" fill="white"/>
<path d="M48.9301 41.184H51.1301L51.4821 41.536V42.328L51.1301 42.68H48.9301L48.5781 42.24V41.624L48.9301 41.184Z" fill="white"/>
<path d="M36.1645 41.184H38.3645L38.7165 41.536V42.328L38.3645 42.68H36.1645L35.8125 42.24V41.624L36.1645 41.184Z" fill="white"/>
<path d="M27.6332 41.184H29.8333L30.1853 41.624V42.24L29.8333 42.68H27.6332L27.2812 42.328V41.536L27.6332 41.184Z" fill="white"/>
<path d="M14.8754 41.184H17.0754L17.4274 41.624V42.24L17.0754 42.68H14.8754L14.5234 42.328V41.536L14.8754 41.184Z" fill="white"/>
<path d="M44.7056 44H46.9056L47.2576 44.264L47.3456 44.88L47.0816 45.32L46.9056 45.408H44.7056L44.3536 45.144L44.2656 44.528L44.5296 44.088L44.7056 44Z" fill="white"/>
<path d="M19.0962 44H21.2962L21.6483 44.264L21.7362 44.88L21.4722 45.32L21.2962 45.408H19.0962L18.7442 45.056L18.6562 44.528L18.9202 44.088L19.0962 44Z" fill="white"/>
<path d="M31.9478 44H34.0598L34.4998 44.44L34.4118 45.144L34.0598 45.408H31.9478L31.5958 45.144L31.5078 44.44L31.5958 44.176L31.9478 44Z" fill="white"/>
<path d="M27.6332 44H29.8333L30.1853 44.352V44.968L29.8333 45.408H27.6332L27.2812 45.056V44.264L27.6332 44Z" fill="white"/>
<path d="M23.3207 44H25.5208L25.8728 44.264V45.056L25.5208 45.408H23.3207L22.9688 44.968V44.352L23.3207 44Z" fill="white"/>
<path d="M48.9301 44H51.1301L51.4821 44.264V45.056L51.1301 45.408H48.9301L48.5781 44.968V44.352L48.9301 44Z" fill="white"/>
<path d="M36.1645 44H38.3645L38.7165 44.264V45.056L38.3645 45.408H36.1645L35.8125 44.968V44.352L36.1645 44Z" fill="white"/>
<path d="M40.477 44H42.677L43.029 44.44V44.968L42.677 45.408H40.477L40.125 45.056V44.264L40.477 44Z" fill="white"/>
<path d="M14.8754 44H17.0754L17.4274 44.44V44.968L17.0754 45.408H14.8754L14.5234 45.056V44.264L14.8754 44Z" fill="white"/>
<path d="M53.2426 41.184H54.7386L55.0026 41.536V42.328L54.7386 42.68H53.2426L52.8906 42.328V41.536L53.2426 41.184Z" fill="white"/>
<path d="M11.352 41.184H12.76L13.112 41.536V42.328L12.76 42.68H11.264L11 42.328V41.536L11.352 41.184Z" fill="white"/>
<path d="M53.2426 44H54.7386L55.0026 44.264V45.056L54.7386 45.408H53.2426L52.8906 45.056V44.264L53.2426 44Z" fill="white"/>
<path d="M11.264 44H12.76L13.112 44.264V45.056L12.76 45.408H11.264L11 45.056V44.264L11.264 44Z" fill="white"/>
</g>
<defs>
<clipPath id="clip0_2001_5916">
<rect width="44" height="44" fill="white" transform="translate(11 11)"/>
</clipPath>
</defs>
</svg>
