<svg width="65" height="65" viewBox="0 0 65 65" fill="none" xmlns="http://www.w3.org/2000/svg">
<rect width="65" height="65" fill="#BC4242"/>
<g clip-path="url(#clip0_2001_4441)">
<path d="M21.8233 11.528H51.8313L52.9753 11.88L53.7673 12.496L54.3833 13.376L54.5593 13.904V36.08L54.2073 36.96L53.4153 37.84L52.8873 38.192L52.0953 38.456H45.5833L45.3193 38.28L45.2313 37.84L45.4073 37.4L45.5833 37.312L51.7433 37.224L52.5353 36.872L53.0633 36.432L53.3273 35.728L53.4153 21.824L52.2713 21.648L49.4553 21.296L48.3113 21.208H43.2953L40.2153 21.472L37.7513 21.824L36.1673 22L32.8233 22.44L30.5353 22.616L27.1913 22.704L24.9033 22.616L22.1753 22.352L20.3273 22V29.48H20.7673L21.1193 29.832V30.448L20.6793 30.712H20.3273L20.4153 35.904L20.7673 36.608L21.3833 37.048L21.9993 37.224L28.1593 37.312L28.4233 37.664L28.3353 38.28L28.0713 38.456H21.6473L20.6793 38.104L19.8873 37.488L19.3593 36.696L19.0953 35.816L19.0073 34.76H14.8713L14.6953 34.584V33.88L14.9593 33.616H19.0073L19.0953 30.712H16.8073L16.3673 30.272L16.4553 29.744L16.8073 29.48H19.0953V20.24H15.8393L15.5753 19.976V19.36L15.8393 19.096H19.0953V14.256L19.4473 13.112L20.2393 12.232L20.9433 11.792L21.8233 11.528ZM21.8233 12.76L20.9433 13.2L20.4153 13.992L20.3273 14.168V16.456L21.6473 16.72L23.6713 16.984L25.9593 17.16H30.2713L33.4393 16.896L36.5193 16.456L39.6873 15.84L42.5913 15.488L43.9993 15.4H47.4313L49.6313 15.576L51.9193 15.928L53.1513 16.192H53.4153V14.344L53.0633 13.552L52.3593 12.936L51.9193 12.76H21.8233ZM44.4393 16.456L41.2713 16.72L38.1033 17.248L35.9033 17.688L33.0873 18.04L28.5993 18.216L25.1673 18.128L23.1433 18.04L20.6793 17.688H20.3273V20.856L21.9993 21.208L24.2873 21.472L25.5193 21.56H29.7433L33.0873 21.296L36.8713 20.768L39.7753 20.328L42.5913 20.064L44.2633 19.976H47.3433L50.0713 20.152L53.1513 20.592H53.4153V17.424L52.0073 17.072L49.9833 16.72L48.3113 16.544L46.8153 16.456H44.4393Z" fill="white"/>
<path d="M36.2587 24.464H37.2267L38.1067 24.904L38.6347 25.608V25.872L39.4267 25.696L40.3067 25.784L40.9227 26.048L41.3627 26.488L41.6267 26.928L41.8027 27.456L42.0667 27.368H42.9467L43.6507 27.632L44.1787 28.248L44.4427 28.864V41.184L44.1787 42.504L43.6507 43.912L42.9467 45.232L42.7707 46.024L42.5067 46.288H41.9787L41.6267 45.936V45.232L41.9787 44.264L42.6827 43.032L43.1227 41.8L43.2987 40.48V29.304L43.0347 28.776L42.8587 28.688H42.2427L41.8027 29.128L41.7147 34.056L41.5387 34.32L41.0107 34.408L40.5707 34.144L40.4827 27.632L40.3067 27.104L39.9547 26.928H39.4267L38.9867 27.28L38.8987 27.456L38.8107 33.88L38.6347 34.232L38.4587 34.32H37.8427L37.5787 33.968L37.4907 26.224L37.2267 25.784L36.6107 25.608L36.0827 25.96L35.9947 26.136L35.9067 33.792L35.7307 34.232L35.5547 34.32H34.9387L34.6747 33.968L34.5867 28.072L34.1467 27.632L33.5307 27.544L33.0907 27.808L32.9147 28.072L32.8267 36.608L32.5627 36.872H31.9467L31.6827 36.608L31.5947 33.528L31.2427 33.176H30.7147L30.4507 33.44V40.216L30.9787 41.8L31.7707 43.208L32.1227 44.176L32.2107 44.704V45.848L32.0347 46.2L31.8587 46.288H31.3307L30.9787 45.936L30.8907 44.528L30.6267 43.824L29.5707 41.8L29.2188 39.952V33.352L29.5707 32.56L30.2747 32.032L30.6267 31.944H31.3307L31.6827 32.032V27.896L32.0347 27.104L32.7387 26.488L33.1787 26.312H34.3227L34.5867 26.4L34.9387 25.432L35.4667 24.816L36.2587 24.464Z" fill="white"/>
<path d="M30.9787 47.08H42.6827L43.4747 47.256L44.0027 47.696V47.872H44.1787L44.4427 48.752V52.624L44.1787 53.504L43.8267 53.944L43.1227 54.384L42.7707 54.472H30.8907L30.0987 54.208L29.5707 53.768L29.2188 52.8V48.488L29.5707 47.696L30.3627 47.168L30.9787 47.08ZM30.8027 48.224L30.3627 48.664V52.712L30.7147 53.152L30.8907 53.24H42.7707L43.2107 52.8L43.2987 52.624V48.664L42.8587 48.224H30.8027Z" fill="white"/>
<path d="M11.7895 22.3521H15.7495L16.1015 22.6161V23.3201L15.7495 23.5841H11.8775L11.4375 23.3201V22.7041L11.7895 22.3521Z" fill="white"/>
<path d="M13.4671 26.136H17.6031L17.9551 26.4V26.928L17.6911 27.28H13.5551L13.2031 26.928V26.4L13.4671 26.136Z" fill="white"/>
<path d="M11.7015 14.8719H15.8375L16.1015 15.1359V15.8399L15.9255 16.0159H11.6135L11.4375 15.8399V15.2239L11.7015 14.8719Z" fill="white"/>
</g>
<defs>
<clipPath id="clip0_2001_4441">
<rect width="44" height="44" fill="white" transform="translate(11 11)"/>
</clipPath>
</defs>
</svg>
